PathFileType	4	(X/Y/Z)	64_2_99_p1_0-133.trc
DataRate	CameraRate	NumFrames	NumMarkers	Units	OrigDataRate	OrigDataStartFrame	OrigNumFrames
47.0	47.0	5	27	m	47.0	117	134
Frame#	Time	RHip			RKnee			RAnkle			RBigToe			RSmallToe			RHeel			LHip			LKnee			LAnkle			LBigToe			LSmallToe			LHeel			Neck			Head			Nose			RShoulder			RElbow			RWrist			RThumb			RIndex			RPinky			LShoulder			LElbow			LWrist			LThumb			LIndex			LPinky			
		X1	Y1	Z1	X2	Y2	Z2	X3	Y3	Z3	X4	Y4	Z4	X5	Y5	Z5	X6	Y6	Z6	X7	Y7	Z7	X8	Y8	Z8	X9	Y9	Z9	X10	Y10	Z10	X11	Y11	Z11	X12	Y12	Z12	X13	Y13	Z13	X14	Y14	Z14	X15	Y15	Z15	X16	Y16	Z16	X17	Y17	Z17	X18	Y18	Z18	X19	Y19	Z19	X20	Y20	Z20	X21	Y21	Z21	X22	Y22	Z22	X23	Y23	Z23	X24	Y24	Z24	X25	Y25	Z25	X26	Y26	Z26	X27	Y27	Z27	
117	2.4893617021276597	0.3087155718093157	0.7300149309445718	0.5435894423522267	0.2848610570897049	1.0005947153298036	0.9142611583585281	0.2298574956251415	1.266172039033203	1.2657408480557837	0.28537140060910715	1.0554461743434826	1.4139799970390297	0.34212841540400357	1.10062749225093	1.3887311486319707	0.19229917775660715	1.3533031140441358	1.3011872592871336	0.09899509524157855	0.6835418811876808	0.5639066899958927	0.06541948369345874	0.9373002989428892	0.9312051853881104	0.05165049246299851	1.1796072124459704	1.29203147128333	0.12469029362473404	1.0150803009877103	1.4148644666151107	0.046883261527750235	1.0741721229664491	1.4059176993048232	0.0478690277885721	1.2916830827166648	1.302653722044697	0.2613346773625607	0.3708570636123698	0.0205933933159077	0.2798506888953879	0.1939092394823698	-0.17183759553122652	0.293805382598852	0.2094521817637962	-0.017199212124283294	0.41447199534299783	0.49932903699251924	0.08861821702129667	0.44041314512180824	0.5655745725803472	0.36698631983420055	0.33712863182835173	0.3991642064893474	0.5891914555318662	0.2301757006614975	0.41845368126137844	0.669510329140339	0.22377505425915126	0.46350126288752264	0.7012359846646395	0.2796797203304171	0.34977835529438106	0.7279521498169742	0.10133230569871612	0.33979829921272464	0.12331914117283868	0.06577066493600504	0.44575649118898825	0.40343515570504107	0.24619729711171023	0.43675564797109645	0.6183721676563512	0.30927255003989157	0.5155286959089842	0.6829710061589613	0.2869222134944743	0.5188292603560513	0.7083632087364204	0.25003786923775495	0.44717983907453207	0.7083091715118882
118	2.5106382978723403	0.3082959418822684	0.7313514342922998	0.5442542246650726	0.2881802093041023	1.0030075781537802	0.9129818651456274	0.23955365366072454	1.2490288949487574	1.2652143043859394	0.28524617433207505	1.0561547051385878	1.414068418377876	0.3421175674631377	1.1006980295610003	1.3887433357569547	0.19229700162505461	1.3531968373407308	1.3012587675873006	0.1021190022164544	0.6842848659230214	0.5595670527702489	0.06549251151599211	0.9367556136623353	0.9307462637740054	0.05156635235401572	1.1796182814548786	1.2918513015531354	0.12818885258223364	1.018108385454845	1.4143101685595707	0.04696733766863117	1.07413700573837	1.405809021054254	0.04782836138903505	1.2954905090421802	1.305943005632179	0.2532592481827319	0.3808323821059506	0.015437342283107683	0.27911345763894535	0.204254094749594	-0.17824412169401194	0.2938856281014054	0.20609448767768832	-0.022674014692782303	0.4144665983615363	0.4994524151398056	0.08875315059430597	0.44039492694153953	0.5628998561949384	0.3642767202967558	0.34012059240463877	0.4227841136488352	0.6007764301307614	0.2273682302670691	0.468303852297161	0.6987734335552473	0.230893824630117	0.46685672558399827	0.7078782445109418	0.27491089592304635	0.43859317199467407	0.720807860369055	0.10441178573259675	0.3416914355446048	0.11834239692282054	0.068376508348452	0.45035331182902877	0.4014248168144175	0.23970365143663722	0.41899860792774035	0.6242486552461415	0.299637344626752	0.502282405376324	0.6914141008899932	0.29118960418734646	0.47195726103005875	0.7210139201051656	0.2536899499062959	0.4036267261789784	0.7229704667758625
119	2.5319148936170213	0.30877382365304584	0.71293292869259	0.5418246765464432	0.288289947505989	1.0028844345294148	0.9130995892053995	0.23956316278837292	1.2489131256629424	1.265258834865095	0.285209530162757	1.0561150786947875	1.4140007805434864	0.34205574418114515	1.1006909975602626	1.3887077040312015	0.19373149457075056	1.3507049356639527	1.2962253599020837	0.10274988261012374	0.6717322272486433	0.5633666574300162	0.0654872002059264	0.9370354139036935	0.9308294027146373	0.05296399998974918	1.1771117445967003	1.2875404296614568	0.1282538535955709	1.018101570654262	1.4144536647267438	0.04695934310929353	1.074258031205767	1.4058960936072433	0.0448399174159498	1.2849156345294261	1.3037214201271776	0.26132639902684385	0.37082685286965833	0.020353036947579416	0.2789237328898631	0.20333109321974566	-0.18109004075157095	0.2939361782836172	0.2058014707082755	-0.02259842958036289	0.4146157313948803	0.4994681126263643	0.0889783327827542	0.4399952628160098	0.5751738404034173	0.3599460082208309	0.3433862106627468	0.44144475025688157	0.6063790501163848	0.22837601458106294	0.463221802231636	0.7050552496668206	0.23186083217353343	0.4689879088315249	0.7116694875790156	0.2873306611864991	0.44450872628974647	0.7282874274679848	0.1014146844987198	0.3398578945990192	0.12335302608979187	0.06624953878089251	0.4348741386919966	0.40311008348032307	0.23596379681586002	0.42099181371494965	0.6315207277794446	0.28031801821669416	0.5079980520887516	0.6913401253540792	0.28441273486832835	0.47091011218833634	0.726125489661365	0.25932284674659517	0.4342991654860977	0.7190375614618688
120	2.5531914893617023	0.3049432899214928	0.7265870931405061	0.5424762759004791	0.2883253842789327	1.002810529317107	0.9121412745421803	0.2404859002251207	1.231766391823895	1.265599901890698	0.2852154553078477	1.0404104537815602	1.4144544719398557	0.3494835507958452	1.0853734719305828	1.3837470619316719	0.19227492761864348	1.3349314195566326	1.2986767274608317	0.10270840910045666	0.6760949877322475	0.5696816994431334	0.06929668587336522	0.9366950148199762	0.9299563981807261	0.051611320295404106	1.1752956410408686	1.2878773885628914	0.12474332322984746	1.0151359107650288	1.4152068945446938	0.047587698502623677	1.074919353252825	1.4098207105419713	0.047827667879033	1.291491224044352	1.3022556780610832	0.2532330164992052	0.381088769774548	0.015243169338487772	0.27889043430067545	0.20356157158668947	-0.18137865628057223	0.2937858669601059	0.21550337722005736	-0.027899685003573305	0.4147288749894202	0.5011386073327732	0.09202010896055438	0.43973904722774154	0.58752208270652	0.3557508615832522	0.3463192807102352	0.44835375759921914	0.611539579154069	0.2394726049457152	0.4551444891290321	0.7108821303428365	0.2311958998960751	0.4705242019057749	0.7154211655911161	0.27111657972452907	0.46588878593455785	0.7241139382739273	0.10423537855444234	0.3449151477095296	0.1248386447997773	0.055792130964691385	0.45915269177613943	0.40304784914346187	0.23760115993486391	0.4391275022343727	0.6266769998183163	0.3106440221793076	0.4844050961581203	0.707830149223638	0.2957813574906871	0.47695268239047917	0.7313372159210167	0.2518413741992187	0.4712846639500932	0.7118800196850897
121	2.574468085106383	0.3085129564334426	0.730958405229082	0.5446545637395896	0.2878588611208438	1.0016893939437572	0.9076476630914547	0.24062486710661074	1.231793951687623	1.2657706670437843	0.2852249975523219	1.055860715203268	1.414123893704325	0.3455760396021331	1.102798730913217	1.3841089150039068	0.19225896244108726	1.3346913668060962	1.2984312810903391	0.0968022367696581	0.6690486162975268	0.5722092780188132	0.06936475774795967	0.9368235504796144	0.9299121046985104	0.05634812240930083	1.1762040124774624	1.2827241652526442	0.12457455841957402	1.0152728772857391	1.4148523834910027	0.04754835650103633	1.0748191291695783	1.4096642191715685	0.047930048297084846	1.2916323499284619	1.3019376321013498	0.26155590719131955	0.369415674058343	0.016942578750909643	0.27128114281803584	0.21260950662956954	-0.18720638367607967	0.286691125787549	0.21870908074221906	-0.040773000920069705	0.4148002230061347	0.4980616404590357	0.08537258961383536	0.43938093921581484	0.6000332536212537	0.3511496511085987	0.3456053148065971	0.4629700588162325	0.6153926518397107	0.23148287428121825	0.46216983513132104	0.7177537640120252	0.234290913462773	0.4684167571685464	0.7199448949966452	0.27400266700883547	0.5115288392108848	0.7292980595033555	0.10397933027641652	0.3472668755751689	0.12744316222397867	0.056653808297133866	0.4553340906898837	0.41715946325657505	0.24106183125112773	0.44238662392916817	0.6292251574036692	0.2844486634733581	0.5237842660482156	0.7023188254000639	0.28550596891774144	0.5173831878926852	0.7226822118464062	0.2519032015348877	0.48318218741179814	0.7123300998282781
